<svg id="Capa_1" data-name="Capa 1" xmlns="http://www.w3.org/2000/svg" viewBox="0 0 134.96 24.36"><defs><style>.cls-1{fill:#5f6062;}</style></defs><path class="cls-1" d="M85,4.9H67.61a2,2,0,0,0-2.07,2v1.4h8.74V19.43h3.87V8.26H87V6.82A2,2,0,0,0,85,4.9"/><path class="cls-1" d="M111.64,14.13h0v5.3h3.86V10.37h-3.86Zm22.75-7.25a2,2,0,0,0-2.07-2h-2.55a2.11,2.11,0,0,0-1.75.94l-5,8.66-5-8.62a2.09,2.09,0,0,0-1.78-1H113.7a2,2,0,0,0-2.06,2V8.1h3.7l.85,1.46h0l5.11,8.82h0a1.9,1.9,0,0,0,3.43,0h0l5.11-8.82h0l.69-1.19V19.43h3.86V6.88"/><path class="cls-1" d="M59.7,19.05a2.1,2.1,0,0,0,1.21.38h.94a2,2,0,0,0,2.07-2V4.9H60v9.93L46.8,5.29h0a2.14,2.14,0,0,0-1.23-.39h-1a2,2,0,0,0-2.06,2V8.55h0V19.43h3.88V9.37Z"/><path class="cls-1" d="M33.32,5.85a2.06,2.06,0,0,0-1.75-.95h-2a2.06,2.06,0,0,0-1.77,1h0L26.42,8.1h4.65l1.26,2.3H25.05l-5.43,9h4.2l3.09-5.63h7.28l3.1,5.63h4.2Z"/><path class="cls-1" d="M106.26,4.89h3.86v10.9a3.71,3.71,0,0,1-3.78,3.64H92.44a3.72,3.72,0,0,1-3.8-3.64V4.89h3.88V15a1.1,1.1,0,0,0,1.12,1.07h11.5A1.1,1.1,0,0,0,106.27,15Z"/><path class="cls-1" d="M20.72,5.76a5.37,5.37,0,0,0-3.06-.84h-.09L5,4.9H.56V8.1H18.31v2.3H.56v9H4.44V13.6H17.55a6.22,6.22,0,0,0,3.31-.71A2.75,2.75,0,0,0,22,10.43h0v-2h0a3.07,3.07,0,0,0-1.32-2.67"/><path class="cls-1" d="M85,4.9H67.61a2,2,0,0,0-2.07,2v1.4h8.74V19.43h3.87V8.26H87V6.82A2,2,0,0,0,85,4.9"/><path class="cls-1" d="M111.64,14.13h0v5.3h3.87V10.37h-3.87Zm22.75-7.25a2,2,0,0,0-2.06-2h-2.55a2.08,2.08,0,0,0-1.75.94l-5,8.66-5-8.62a2.08,2.08,0,0,0-1.77-1h-2.55a2,2,0,0,0-2.07,2V8.1h3.71l.84,1.46h0l5.11,8.82h0a1.9,1.9,0,0,0,3.43,0h0l5.11-8.82h0l.69-1.19V19.43h3.86V6.88"/><path class="cls-1" d="M59.7,19.05a2.1,2.1,0,0,0,1.21.38h.94a2,2,0,0,0,2.07-2V4.9H60v9.93L46.79,5.29h0a2.14,2.14,0,0,0-1.23-.39h-1a2,2,0,0,0-2.06,2V8.55h0V19.43h3.88V9.37Z"/><path class="cls-1" d="M33.32,5.85a2.06,2.06,0,0,0-1.75-.95h-2a2.05,2.05,0,0,0-1.76,1L26.42,8.1h4.65l1.26,2.3H25.05l-5.43,9h4.2l3.09-5.63h7.28l3.1,5.63h4.2Z"/><path class="cls-1" d="M106.26,4.89h3.86v10.9a3.71,3.71,0,0,1-3.78,3.64H92.44a3.71,3.71,0,0,1-3.79-3.64V4.89h3.87V15a1.1,1.1,0,0,0,1.12,1.07h11.5A1.1,1.1,0,0,0,106.27,15Z"/></svg>