<svg id="Capa_1" data-name="Capa 1" xmlns="http://www.w3.org/2000/svg" viewBox="0 0 134.96 24.36"><defs><style>.cls-1{fill:#ce0e2d;}</style></defs><path class="cls-1" d="M52.51,12.18c0,4.75,3.52,8.25,9.39,8.25a16.51,16.51,0,0,0,7.23-1.52l2.19,3a20.45,20.45,0,0,1-10.45,2.45c-9.37,0-16.26-4.51-16.26-12.18h0C44.61,4.52,51.5,0,60.87,0A23.21,23.21,0,0,1,71.12,2L68.86,5.47a13.72,13.72,0,0,0-7-1.54c-5.87,0-9.39,3.5-9.39,8.25"/><path class="cls-1" d="M88.27,0C79.19,0,72.65,4.52,72.65,12.18s6.54,12.18,15.62,12.18,15.61-4.51,15.61-12.18S97.34,0,88.27,0m0,20.57c-5,0-7.75-3.75-7.75-8.39s2.75-8.39,7.75-8.39S96,7.53,96,12.18s-2.76,8.39-7.74,8.39Z"/><polygon class="cls-1" points="127.47 13.94 127.47 23.74 134.96 23.74 134.96 0.61 127.47 0.61 127.47 9.43 116.01 9.43 116.01 0.61 108.52 0.61 108.52 23.74 116.01 23.74 116.01 13.94 127.47 13.94 127.47 13.94"/><polygon class="cls-1" points="40.09 23.74 40.09 0.61 32.2 0.61 32.2 23.74 40.09 23.74 40.09 23.74"/><path class="cls-1" d="M9.55,11.2v2.21A58.36,58.36,0,0,1,19.82,23.74h8.84A56.58,56.58,0,0,0,17.4,13.68c4.07-.17,8.62-1.82,8.62-6.5,0-6-6.41-7.11-12.9-7.11C7.81.07,2.92.32,0,.56V23.74H7.36V4a48.39,48.39,0,0,1,5.79-.3c3.79,0,5.71,1.25,5.71,3.44,0,1.87-.79,4.1-9.31,4Z"/></svg>